<mxfile host="Electron" agent="Mozilla/5.0 (Macintosh; Intel Mac OS X 10_15_7) AppleWebKit/537.36 (KHTML, like Gecko) draw.io/28.1.2 Chrome/138.0.7204.243 Electron/37.4.0 Safari/537.36" version="28.1.2">
  <diagram name="Page-1" id="e8_ZRab-alWl8BQBZMjT">
    <mxGraphModel dx="1298" dy="839" grid="1" gridSize="10" guides="1" tooltips="1" connect="1" arrows="1" fold="1" page="1" pageScale="1" pageWidth="827" pageHeight="1169" math="0" shadow="0">
      <root>
        <mxCell id="0" />
        <mxCell id="1" parent="0" />
        <mxCell id="Pu2UN6r3oj8S4vYEtYvr-1" value="&lt;h1 style=&quot;margin-top: 0px;&quot;&gt;Application e-commerce&lt;/h1&gt;&lt;p&gt;Diagramme de cas d&#39;utilisation&lt;br&gt;v2 - clean&lt;/p&gt;" style="text;html=1;whiteSpace=wrap;overflow=hidden;rounded=0;align=center;" vertex="1" parent="1">
          <mxGeometry x="266" y="20" width="296" height="100" as="geometry" />
        </mxCell>
        <mxCell id="Pu2UN6r3oj8S4vYEtYvr-2" value="User" style="shape=umlActor;verticalLabelPosition=bottom;verticalAlign=top;html=1;" vertex="1" parent="1">
          <mxGeometry x="70" y="510" width="30" height="60" as="geometry" />
        </mxCell>
        <mxCell id="Pu2UN6r3oj8S4vYEtYvr-3" value="&lt;b&gt;products&lt;/b&gt;" style="shape=umlFrame;whiteSpace=wrap;html=1;pointerEvents=0;width=80;height=30;" vertex="1" parent="1">
          <mxGeometry x="240" y="160" width="440" height="200" as="geometry" />
        </mxCell>
        <mxCell id="Pu2UN6r3oj8S4vYEtYvr-4" value="&lt;b&gt;cart&lt;/b&gt;" style="shape=umlFrame;whiteSpace=wrap;html=1;pointerEvents=0;width=80;height=30;" vertex="1" parent="1">
          <mxGeometry x="240" y="440" width="440" height="240" as="geometry" />
        </mxCell>
        <mxCell id="Pu2UN6r3oj8S4vYEtYvr-5" value="&lt;b&gt;orders&lt;/b&gt;" style="shape=umlFrame;whiteSpace=wrap;html=1;pointerEvents=0;width=80;height=30;" vertex="1" parent="1">
          <mxGeometry x="240" y="760" width="440" height="240" as="geometry" />
        </mxCell>
        <mxCell id="Pu2UN6r3oj8S4vYEtYvr-6" value="List products" style="ellipse;whiteSpace=wrap;html=1;" vertex="1" parent="1">
          <mxGeometry x="274" y="210" width="140" height="70" as="geometry" />
        </mxCell>
        <mxCell id="Pu2UN6r3oj8S4vYEtYvr-7" value="Add to cart" style="ellipse;whiteSpace=wrap;html=1;" vertex="1" parent="1">
          <mxGeometry x="274" y="490" width="140" height="70" as="geometry" />
        </mxCell>
        <mxCell id="Pu2UN6r3oj8S4vYEtYvr-8" value="Get cart" style="ellipse;whiteSpace=wrap;html=1;" vertex="1" parent="1">
          <mxGeometry x="274" y="585" width="140" height="70" as="geometry" />
        </mxCell>
        <mxCell id="Pu2UN6r3oj8S4vYEtYvr-9" value="Remove from cart" style="ellipse;whiteSpace=wrap;html=1;" vertex="1" parent="1">
          <mxGeometry x="480" y="490" width="140" height="70" as="geometry" />
        </mxCell>
        <mxCell id="Pu2UN6r3oj8S4vYEtYvr-10" value="Clear cart" style="ellipse;whiteSpace=wrap;html=1;" vertex="1" parent="1">
          <mxGeometry x="480" y="585" width="140" height="70" as="geometry" />
        </mxCell>
        <mxCell id="Pu2UN6r3oj8S4vYEtYvr-11" value="Checkout order" style="ellipse;whiteSpace=wrap;html=1;" vertex="1" parent="1">
          <mxGeometry x="274" y="810" width="140" height="70" as="geometry" />
        </mxCell>
        <mxCell id="Pu2UN6r3oj8S4vYEtYvr-12" value="Get orders" style="ellipse;whiteSpace=wrap;html=1;" vertex="1" parent="1">
          <mxGeometry x="274" y="910" width="140" height="70" as="geometry" />
        </mxCell>
        <mxCell id="Pu2UN6r3oj8S4vYEtYvr-13" value="Get order details" style="ellipse;whiteSpace=wrap;html=1;" vertex="1" parent="1">
          <mxGeometry x="480" y="810" width="140" height="70" as="geometry" />
        </mxCell>
        <mxCell id="Pu2UN6r3oj8S4vYEtYvr-14" style="edgeStyle=orthogonalEdgeStyle;rounded=0;orthogonalLoop=1;jettySize=auto;html=1;entryX=-0.002;entryY=0.485;entryDx=0;entryDy=0;entryPerimeter=0;endArrow=none;endFill=0;" edge="1" parent="1" source="Pu2UN6r3oj8S4vYEtYvr-2" target="Pu2UN6r3oj8S4vYEtYvr-3">
          <mxGeometry relative="1" as="geometry" />
        </mxCell>
        <mxCell id="Pu2UN6r3oj8S4vYEtYvr-15" style="edgeStyle=orthogonalEdgeStyle;rounded=0;orthogonalLoop=1;jettySize=auto;html=1;entryX=-0.007;entryY=0.417;entryDx=0;entryDy=0;entryPerimeter=0;endArrow=none;endFill=0;" edge="1" parent="1" source="Pu2UN6r3oj8S4vYEtYvr-2" target="Pu2UN6r3oj8S4vYEtYvr-4">
          <mxGeometry relative="1" as="geometry" />
        </mxCell>
        <mxCell id="Pu2UN6r3oj8S4vYEtYvr-16" style="edgeStyle=orthogonalEdgeStyle;rounded=0;orthogonalLoop=1;jettySize=auto;html=1;entryX=-0.002;entryY=0.588;entryDx=0;entryDy=0;entryPerimeter=0;endArrow=none;endFill=0;" edge="1" parent="1" source="Pu2UN6r3oj8S4vYEtYvr-2" target="Pu2UN6r3oj8S4vYEtYvr-5">
          <mxGeometry relative="1" as="geometry" />
        </mxCell>
        <mxCell id="Pu2UN6r3oj8S4vYEtYvr-17" style="edgeStyle=orthogonalEdgeStyle;rounded=0;orthogonalLoop=1;jettySize=auto;html=1;entryX=0.5;entryY=1.008;entryDx=0;entryDy=0;entryPerimeter=0;dashed=1;" edge="1" parent="1" source="Pu2UN6r3oj8S4vYEtYvr-5" target="Pu2UN6r3oj8S4vYEtYvr-4">
          <mxGeometry relative="1" as="geometry" />
        </mxCell>
        <mxCell id="Pu2UN6r3oj8S4vYEtYvr-18" value="&amp;lt;&amp;lt; include &amp;gt;&amp;gt;" style="edgeLabel;html=1;align=center;verticalAlign=middle;resizable=0;points=[];" vertex="1" connectable="0" parent="Pu2UN6r3oj8S4vYEtYvr-17">
          <mxGeometry x="-0.001" relative="1" as="geometry">
            <mxPoint as="offset" />
          </mxGeometry>
        </mxCell>
      </root>
    </mxGraphModel>
  </diagram>
</mxfile>
